<svg xmlns="http://www.w3.org/2000/svg" version="1.1" xmlns:xlink="http://www.w3.org/1999/xlink" xmlns:svgjs="http://svgjs.com/svgjs" width="512" height="512" x="0" y="0" viewBox="0 0 32 32" style="enable-background:new 0 0 512 512" xml:space="preserve" class=""><g><path d="M21.707 12.293a1 1 0 0 0-1.414 0L18 14.586l-2.293-2.293a1 1 0 0 0-1.414 1.414L16.586 16l-2.293 2.293a1 1 0 0 0 1.414 1.414L18 17.414l2.293 2.293a1 1 0 0 0 1.414-1.414L19.414 16l2.293-2.293a1 1 0 0 0 0-1.414z" fill="#d10000" data-original="#000000" opacity="1" class=""></path><path d="M26 8H10a1 1 0 0 0-.759.35l-6 7a1 1 0 0 0 0 1.3l6 7A1 1 0 0 0 10 24h16a3 3 0 0 0 3-3V11a3 3 0 0 0-3-3zm1 13a1 1 0 0 1-1 1H10.46l-5.143-6 5.143-6H26a1 1 0 0 1 1 1z" fill="#d10000" data-original="#000000" opacity="1" class=""></path></g></svg>